HIERARCHY
ROOT Hips
{
  OFFSET -5.731 31.154 -242.604
  CHANNELS 6 Xposition Yposition Zposition Zrotation Xrotation Yrotation
  JOINT LeftUpLeg
  {
    OFFSET 7.517 -6.296 3.991
    CHANNELS 6 Xposition Yposition Zposition Zrotation Xrotation Yrotation
    JOINT LeftLeg
    {
      OFFSET -0.000 -53.474 0.000
      CHANNELS 6 Xposition Yposition Zposition Zrotation Xrotation Yrotation
      JOINT LeftFoot
      {
        OFFSET -0.000 -41.767 -0.000
        CHANNELS 6 Xposition Yposition Zposition Zrotation Xrotation Yrotation
        End Site
        {
          OFFSET 0.000 -8.361 4.827
        }
      }
    }
  }
  JOINT RightUpLeg
  {
    OFFSET -7.062 -7.060 4.153
    CHANNELS 6 Xposition Yposition Zposition Zrotation Xrotation Yrotation
    JOINT RightLeg
    {
      OFFSET -0.000 -51.200 0.000
      CHANNELS 6 Xposition Yposition Zposition Zrotation Xrotation Yrotation
      JOINT RightFoot
      {
        OFFSET -0.000 -43.751 -0.000
        CHANNELS 6 Xposition Yposition Zposition Zrotation Xrotation Yrotation
        End Site
        {
          OFFSET 0.000 -8.208 4.739
        }
      }
    }
  }
  JOINT Spine
  {
    OFFSET 0.000 4.989 -4.989
    CHANNELS 6 Xposition Yposition Zposition Zrotation Xrotation Yrotation
    JOINT LeftShoulder
    {
      OFFSET -0.000 38.505 0.000
      CHANNELS 6 Xposition Yposition Zposition Zrotation Xrotation Yrotation
      JOINT LeftArm
      {
        OFFSET 22.801 0.000 -0.000
        CHANNELS 6 Xposition Yposition Zposition Zrotation Xrotation Yrotation
        JOINT LeftForeArm
        {
          OFFSET 24.641 0.000 0.000
          CHANNELS 6 Xposition Yposition Zposition Zrotation Xrotation Yrotation
          JOINT LeftHand
          {
            OFFSET 26.672 -0.000 -0.000
            CHANNELS 6 Xposition Yposition Zposition Zrotation Xrotation Yrotation
            JOINT LeftHandThumb1
            {
            OFFSET 4.970 -0.620 3.390
            CHANNELS 6 Xposition Yposition Zposition Zrotation Xrotation Yrotation
              JOINT LeftHandThumb2
              {
              OFFSET 2.150 -0.000 0.000
              CHANNELS 6 Xposition Yposition Zposition Zrotation Xrotation Yrotation
                JOINT LeftHandThumb3
                {
                OFFSET 2.200 -0.000 0.000
                CHANNELS 6 Xposition Yposition Zposition Zrotation Xrotation Yrotation
                  JOINT LeftHandThumb4
                  {
                  OFFSET 1.700 -0.000 0.000
                  CHANNELS 6 Xposition Yposition Zposition Zrotation Xrotation Yrotation
                  }
                }
              }
            }
            JOINT LeftHandIndex1
            {
            OFFSET 8.730 0.680 2.070
            CHANNELS 6 Xposition Yposition Zposition Zrotation Xrotation Yrotation
              JOINT LeftHandIndex2
              {
              OFFSET 2.670 -0.000 0.000
              CHANNELS 6 Xposition Yposition Zposition Zrotation Xrotation Yrotation
                JOINT LeftHandIndex3
                {
                OFFSET 2.130 -0.000 0.000
                CHANNELS 6 Xposition Yposition Zposition Zrotation Xrotation Yrotation
                  JOINT LeftHandIndex4
                  {
                  OFFSET 1.800 -0.000 0.000
                  CHANNELS 6 Xposition Yposition Zposition Zrotation Xrotation Yrotation
                  }
                }
              }
            }
            JOINT LeftHandMiddle1
            {
            OFFSET 9.220 0.670 0.550
            CHANNELS 6 Xposition Yposition Zposition Zrotation Xrotation Yrotation
              JOINT LeftHandMiddle2
              {
              OFFSET 2.660 -0.000 0.000
              CHANNELS 6 Xposition Yposition Zposition Zrotation Xrotation Yrotation
                JOINT LeftHandMiddle3
                {
                OFFSET 2.280 -0.000 0.000
                CHANNELS 6 Xposition Yposition Zposition Zrotation Xrotation Yrotation
                  JOINT LeftHandMiddle4
                  {
                  OFFSET 1.500 -0.000 0.000
                  CHANNELS 6 Xposition Yposition Zposition Zrotation Xrotation Yrotation
                  }
                }
              }
            }
            JOINT LeftHandRing1
            {
            OFFSET 9.250 0.670 -1.130
            CHANNELS 6 Xposition Yposition Zposition Zrotation Xrotation Yrotation
              JOINT LeftHandRing2
              {
              OFFSET 2.470 -0.000 0.000
              CHANNELS 6 Xposition Yposition Zposition Zrotation Xrotation Yrotation
                JOINT LeftHandRing3
                {
                OFFSET 2.210 -0.000 0.000
                CHANNELS 6 Xposition Yposition Zposition Zrotation Xrotation Yrotation
                  JOINT LeftHandRing4
                  {
                  OFFSET 1.800 -0.000 0.000
                  CHANNELS 6 Xposition Yposition Zposition Zrotation Xrotation Yrotation
                  }
                }
              }
            }
            JOINT LeftHandPinky1
            {
            OFFSET 9.350 0.660 -2.720
            CHANNELS 6 Xposition Yposition Zposition Zrotation Xrotation Yrotation
              JOINT LeftHandPinky2
              {
              OFFSET 1.630 -0.000 0.000
              CHANNELS 6 Xposition Yposition Zposition Zrotation Xrotation Yrotation
                JOINT LeftHandPinky3
                {
                OFFSET 1.710 -0.000 0.000
                CHANNELS 6 Xposition Yposition Zposition Zrotation Xrotation Yrotation
                  JOINT LeftHandPinky4
                  {
                  OFFSET 1.800 -0.000 0.000
                  CHANNELS 6 Xposition Yposition Zposition Zrotation Xrotation Yrotation
                  }
                }
              }
            }
          }
        }
      }
    }
    JOINT RightShoulder
    {
      OFFSET -0.000 38.505 0.000
      CHANNELS 6 Xposition Yposition Zposition Zrotation Xrotation Yrotation
      JOINT RightArm
      {
        OFFSET -23.407 0.000 -0.000
        CHANNELS 6 Xposition Yposition Zposition Zrotation Xrotation Yrotation
        JOINT RightForeArm
        {
          OFFSET -22.829 0.000 0.000
          CHANNELS 6 Xposition Yposition Zposition Zrotation Xrotation Yrotation
          JOINT RightHand
          {
            OFFSET -27.551 0.000 -0.000
            CHANNELS 6 Xposition Yposition Zposition Zrotation Xrotation Yrotation
            JOINT RightHandThumb1
            {
            OFFSET -4.970 -0.620 3.390
            CHANNELS 6 Xposition Yposition Zposition Zrotation Xrotation Yrotation
              JOINT RightHandThumb2
              {
              OFFSET -2.150 0.000 0.000
              CHANNELS 6 Xposition Yposition Zposition Zrotation Xrotation Yrotation
                JOINT RightHandThumb3
                {
                OFFSET -2.200 0.000 0.000
                CHANNELS 6 Xposition Yposition Zposition Zrotation Xrotation Yrotation
                  JOINT RightHandThumb4
                  {
                  OFFSET -1.700 0.000 0.000
                  CHANNELS 6 Xposition Yposition Zposition Zrotation Xrotation Yrotation
                  }
                }
              }
            }
            JOINT RightHandIndex1
            {
            OFFSET -8.730 0.680 2.070
            CHANNELS 6 Xposition Yposition Zposition Zrotation Xrotation Yrotation
              JOINT RightHandIndex2
              {
              OFFSET -2.670 0.000 0.000
              CHANNELS 6 Xposition Yposition Zposition Zrotation Xrotation Yrotation
                JOINT RightHandIndex3
                {
                OFFSET -2.130 0.000 0.000
                CHANNELS 6 Xposition Yposition Zposition Zrotation Xrotation Yrotation
                  JOINT RightHandIndex4
                  {
                  OFFSET -1.800 0.000 0.000
                  CHANNELS 6 Xposition Yposition Zposition Zrotation Xrotation Yrotation
                  }
                }
              }
            }
            JOINT RightHandMiddle1
            {
            OFFSET -9.220 0.670 0.550
            CHANNELS 6 Xposition Yposition Zposition Zrotation Xrotation Yrotation
              JOINT RightHandMiddle2
              {
              OFFSET -2.660 0.000 0.000
              CHANNELS 6 Xposition Yposition Zposition Zrotation Xrotation Yrotation
                JOINT RightHandMiddle3
                {
                OFFSET -2.280 0.000 0.000
                CHANNELS 6 Xposition Yposition Zposition Zrotation Xrotation Yrotation
                  JOINT RightHandMiddle4
                  {
                  OFFSET -1.500 0.000 0.000
                  CHANNELS 6 Xposition Yposition Zposition Zrotation Xrotation Yrotation
                  }
                }
              }
            }
            JOINT RightHandRing1
            {
            OFFSET -9.250 0.670 -1.130
            CHANNELS 6 Xposition Yposition Zposition Zrotation Xrotation Yrotation
              JOINT RightHandRing2
              {
              OFFSET -2.470 0.000 0.000
              CHANNELS 6 Xposition Yposition Zposition Zrotation Xrotation Yrotation
                JOINT RightHandRing3
                {
                OFFSET -2.210 0.000 0.000
                CHANNELS 6 Xposition Yposition Zposition Zrotation Xrotation Yrotation
                  JOINT RightHandRing4
                  {
                  OFFSET -1.800 0.000 0.000
                  CHANNELS 6 Xposition Yposition Zposition Zrotation Xrotation Yrotation
                  }
                }
              }
            }
            JOINT RightHandPinky1
            {
            OFFSET -9.350 0.660 -2.720
            CHANNELS 6 Xposition Yposition Zposition Zrotation Xrotation Yrotation
              JOINT RightHandPinky2
              {
              OFFSET -1.630 0.000 0.000
              CHANNELS 6 Xposition Yposition Zposition Zrotation Xrotation Yrotation
                JOINT RightHandPinky3
                {
                OFFSET -1.710 0.000 0.000
                CHANNELS 6 Xposition Yposition Zposition Zrotation Xrotation Yrotation
                  JOINT RightHandPinky4
                  {
                  OFFSET -1.800 0.000 0.000
                  CHANNELS 6 Xposition Yposition Zposition Zrotation Xrotation Yrotation
                  }
                }
              }
            }
          }
        }
      }
    }
    JOINT Neck
    {
      OFFSET -0.000 38.505 0.000
      CHANNELS 6 Xposition Yposition Zposition Zrotation Xrotation Yrotation
      JOINT Head
      {
        OFFSET -0.000 13.883 -0.000
        CHANNELS 6 Xposition Yposition Zposition Zrotation Xrotation Yrotation
        End Site
        {
          OFFSET -0.000 0.056 -0.000
        }
      }
    }
  }
}
MOTION
Frames:	4
Frame Time:	0.0333333
27.6028 31.7573 -241.567 -3.09531 15.1883 -1.95582 7.27772 -7.39842 2.47464 8.71725 -16.8116 2.73489 -2.98023e-06 -50.7152 7.15256e-05 -2.47342 13.6109 4.39222e-07 8.9407e-06 -41.9531 -4.76837e-05 4.5329 -11.1974 3.71889 -7.51565 -7.44907 2.8831 -4.82232 -20.4004 -1.10294 1.49012e-06 -52.286 7.15256e-05 7.27899 22.408 1.61613e-06 -1.49012e-06 -41.7617 2.38419e-05 -8.35801 -10.5 -6.4158 -4.47035e-06 5.49465 -5.49469 -0.949254 -12.2344 1.06902 -2.98023e-06 38.5049 0 -36.86 1.21663e-05 -1.32489 22.2525 1.19209e-05 2.38419e-05 -32.9213 35.3879 -8.88531 24.8894 0 0 3.05497e-05 -2.64279e-06 -107.787 25.7474 5.96046e-06 -2.38419e-05 -5.07531 0.114057 -13.4322 0.0062 0.0497 0.0339 -45 0 0 0 0.0215 0 0 -45 0 0 0.022 0 0 -45 0 0 0.017 0 0 0 0 -0.0068 0.0873 0.0207 -45 0 0 0 0.0267 0 -80 0 0 0 0.0213 0 -90 0 0 0 0.018 0 0 0 0 -0.0067 0.0922 0.0055 -45 0 0 0 0.0266 0 -80 0 0 0 0.0228 0 -90 0 0 0 0.015 0 0 0 0 -0.0067 0.0925 -0.0113 -45 0 0 0 0.0247 0 -80 0 0 0 0.0221 0 -90 0 0 0 0.018 0 0 0 0 -0.0066 0.0935 -0.0272 -45 0 0 0 0.0163 0 -80 0 0 0 0.0171 0 -90 0 0 0 0.018 0 0 0 0 -2.98023e-06 38.5049 0 41.5568 -4.69576e-06 1.29405 -22.7826 2.98023e-06 7.15256e-05 23.9963 41.669 12.788 -24.6384 -4.76837e-05 -2.38419e-05 -1.33918e-06 7.61352e-06 109.952 -28.6522 0 0 6.43755 0.0280496 4.51918 -0.0062 0.0497 0.0339 45 0 0 0 0.0215 0 0 -45 0 0 0.022 0 0 -45 0 0 0.017 0 0 0 0 0.0068 0.0873 0.0207 45 0 0 0 0.0267 0 80 0 0 0 0.0213 0 90 0 0 0 0.018 0 0 0 0 0.0067 0.0922 0.0055 45 0 0 0 0.0266 0 80 0 0 0 0.0228 0 90 0 0 0 0.015 0 0 0 0 0.0067 0.0925 -0.0113 45 0 0 0 0.0247 0 80 0 0 0 0.0221 0 90 0 0 0 0.018 0 0 0 0 0.0066 0.0935 -0.0272 45 0 0 0 0.0163 0 80 0 0 0 0.0171 0 90 0 0 0 0.018 0 0 0 0 -2.98023e-06 38.5049 0 4.23694 6.06683 -0.448603 2.98023e-06 14.6174 7.15256e-05 1.05254e-05 -7.68396e-06 0 
27.6028 31.7573 -241.567 -3.09531 15.1883 -1.95582 7.27772 -7.39842 2.47464 8.71725 -16.8116 2.73489 -2.98023e-06 -50.7152 7.15256e-05 -2.47342 13.6109 4.39222e-07 8.9407e-06 -41.9531 -4.76837e-05 4.5329 -11.1974 3.71889 -7.51565 -7.44907 2.8831 -4.82232 -20.4004 -1.10294 1.49012e-06 -52.286 7.15256e-05 7.27899 22.408 1.61613e-06 -1.49012e-06 -41.7617 2.38419e-05 -8.35801 -10.5 -6.4158 -4.47035e-06 5.49465 -5.49469 -0.949254 -12.2344 1.06902 -2.98023e-06 38.5049 0 -36.86 1.21663e-05 -1.32489 22.2525 1.19209e-05 2.38419e-05 -32.9213 35.3879 -8.88531 24.8894 0 0 3.05497e-05 -2.64279e-06 -107.787 25.7474 5.96046e-06 -2.38419e-05 -5.07531 0.114057 -13.4322 0.0062 0.0497 0.0339 -45 0 0 0 0.0215 0 0 -45 0 0 0.022 0 0 -45 0 0 0.017 0 0 0 0 -0.0068 0.0873 0.0207 -45 0 0 0 0.0267 0 -80 0 0 0 0.0213 0 -90 0 0 0 0.018 0 0 0 0 -0.0067 0.0922 0.0055 -45 0 0 0 0.0266 0 -80 0 0 0 0.0228 0 -90 0 0 0 0.015 0 0 0 0 -0.0067 0.0925 -0.0113 -45 0 0 0 0.0247 0 -80 0 0 0 0.0221 0 -90 0 0 0 0.018 0 0 0 0 -0.0066 0.0935 -0.0272 -45 0 0 0 0.0163 0 -80 0 0 0 0.0171 0 -90 0 0 0 0.018 0 0 0 0 -2.98023e-06 38.5049 0 41.5568 -4.69576e-06 1.29405 -22.7826 2.98023e-06 7.15256e-05 23.9963 41.669 12.788 -24.6384 -4.76837e-05 -2.38419e-05 -1.33918e-06 7.61352e-06 109.952 -28.6522 0 0 6.43755 0.0280496 4.51918 -0.0062 0.0497 0.0339 45 0 0 0 0.0215 0 0 -45 0 0 0.022 0 0 -45 0 0 0.017 0 0 0 0 0.0068 0.0873 0.0207 45 0 0 0 0.0267 0 80 0 0 0 0.0213 0 90 0 0 0 0.018 0 0 0 0 0.0067 0.0922 0.0055 45 0 0 0 0.0266 0 80 0 0 0 0.0228 0 90 0 0 0 0.015 0 0 0 0 0.0067 0.0925 -0.0113 45 0 0 0 0.0247 0 80 0 0 0 0.0221 0 90 0 0 0 0.018 0 0 0 0 0.0066 0.0935 -0.0272 45 0 0 0 0.0163 0 80 0 0 0 0.0171 0 90 0 0 0 0.018 0 0 0 0 -2.98023e-06 38.5049 0 4.23694 6.06683 -0.448603 2.98023e-06 14.6174 7.15256e-05 1.05254e-05 -7.68396e-06 0 
25.0985 31.8299 -241.421 -3.4217 15.7318 -2.39654 7.27286 -7.33458 2.55148 9.21025 -17.6358 2.68301 1.63913e-05 -50.8193 2.38419e-05 -2.82553 14.2967 2.20265e-07 -1.49012e-05 -41.9772 -7.15256e-05 4.69643 -13.0087 3.89508 -7.50986 -7.4652 2.9068 -5.54755 -21.7896 -1.38272 4.47035e-06 -52.343 4.76837e-05 7.07595 23.529 1.16399e-06 7.45058e-07 -42.2054 0 -4.19478 -11.4203 -3.67945 -5.96046e-06 5.47255 -5.47252 -0.844267 -12.7668 1.33738 -5.96046e-06 38.5049 0 -37.0683 1.19528e-05 -1.42166 21.9964 5.96046e-06 -2.38419e-05 -33.0434 36.5723 -6.74387 24.5812 0 0 1.24317e-05 -7.30203e-06 -109.103 27.0424 1.19209e-05 -1.19209e-05 8.97866 -0.721425 -16.5015 0.0062 0.0497 0.0339 -45 0 0 0 0.0215 0 0 -45 0 0 0.022 0 0 -45 0 0 0.017 0 0 0 0 -0.0068 0.0873 0.0207 -45 0 0 0 0.0267 0 -80 0 0 0 0.0213 0 -90 0 0 0 0.018 0 0 0 0 -0.0067 0.0922 0.0055 -45 0 0 0 0.0266 0 -80 0 0 0 0.0228 0 -90 0 0 0 0.015 0 0 0 0 -0.0067 0.0925 -0.0113 -45 0 0 0 0.0247 0 -80 0 0 0 0.0221 0 -90 0 0 0 0.018 0 0 0 0 -0.0066 0.0935 -0.0272 -45 0 0 0 0.0163 0 -80 0 0 0 0.0171 0 -90 0 0 0 0.018 0 0 0 0 -5.96046e-06 38.5049 0 41.2851 -4.69576e-06 1.35458 -23.0853 -8.9407e-06 0 24.699 42.5771 13.3301 -24.4225 4.76837e-05 3.57628e-05 -5.03591e-07 2.9086e-06 109.645 -28.8811 -2.38419e-05 2.38419e-05 7.60256 0.00820599 3.53025 -0.0062 0.0497 0.0339 31.5037 0 0 0 0.0215 0 0 -31.5037 0 0 0.022 0 0 -31.5037 0 0 0.017 0 0 0 0 0.0068 0.0873 0.0207 31.5037 0 0 0 0.0267 0 56.0067 0 0 0 0.0213 0 63.0075 0 0 0 0.018 0 0 0 0 0.0067 0.0922 0.0055 31.5037 0 0 0 0.0266 0 56.0067 0 0 0 0.0228 0 63.0075 0 0 0 0.015 0 0 0 0 0.0067 0.0925 -0.0113 31.5037 0 0 0 0.0247 0 56.0067 0 0 0 0.0221 0 63.0075 0 0 0 0.018 0 0 0 0 0.0066 0.0935 -0.0272 31.5037 0 0 0 0.0163 0 56.0067 0 0 0 0.0171 0 63.0075 0 0 0 0.018 0 0 0 0 -5.96046e-06 38.5049 0 8.21798 7.26637 -1.0465 5.96046e-06 14.5288 -4.76837e-05 8.9913e-06 -1.10991e-05 6.4033e-07 
24.1305 31.873 -241.383 -3.23119 15.9372 -2.47251 7.24313 -7.34767 2.57626 9.26912 -17.9637 2.70866 5.96046e-06 -50.9054 2.38419e-05 -3.01079 14.5207 6.61459e-07 -5.96046e-06 -41.9608 2.38419e-05 4.7523 -13.5569 3.95452 -7.4593 -7.43527 2.913 -6.77768 -22.4222 -1.59684 5.58794e-07 -52.436 -4.76837e-05 7.28015 24.1581 9.35725e-07 1.30385e-06 -42.4299 -2.38419e-05 -3.71724 -11.6716 -3.32181 -1.49012e-06 5.4507 -5.45065 -0.526014 -12.8828 1.32588 -5.96046e-06 38.5049 0 -37.3393 1.08856e-05 -1.37478 22.237 1.78814e-05 -4.76837e-05 -33.6797 36.4997 -6.36792 24.5567 0 2.38419e-05 -1.68077e-05 2.88473e-06 -109.478 27.2261 4.76837e-05 -1.19209e-05 15.1251 -1.25098 -18.0536 0.0062 0.0497 0.0339 -31.5038 0 0 0 0.0215 0 0 -31.5038 0 0 0.022 0 0 -31.5038 0 0 0.017 0 0 0 0 -0.0068 0.0873 0.0207 -31.5038 0 0 0 0.0267 0 -56.0067 0 0 0 0.0213 0 -63.0075 0 0 0 0.018 0 0 0 0 -0.0067 0.0922 0.0055 -31.5038 0 0 0 0.0266 0 -56.0067 0 0 0 0.0228 0 -63.0075 0 0 0 0.015 0 0 0 0 -0.0067 0.0925 -0.0113 -31.5038 0 0 0 0.0247 0 -56.0067 0 0 0 0.0221 0 -63.0075 0 0 0 0.018 0 0 0 0 -0.0066 0.0935 -0.0272 -31.5038 0 0 0 0.0163 0 -56.0067 0 0 0 0.0171 0 -63.0075 0 0 0 0.018 0 0 0 0 -5.96046e-06 38.5049 0 41.3775 -6.08314e-06 1.32932 -22.9972 -2.68221e-05 -2.38419e-05 24.1231 42.9234 13.5007 -24.4785 1.19209e-05 -3.57628e-05 -2.14701e-06 1.22416e-05 109.896 -29.0372 2.38419e-05 1.19209e-05 7.77683 -0.0103033 2.96684 -0.0062 0.0497 0.0339 21.0407 0 0 0 0.0215 0 0 -21.0407 0 0 0.022 0 0 -21.0407 0 0 0.017 0 0 0 0 0.0068 0.0873 0.0207 21.0407 0 0 0 0.0267 0 37.4057 0 0 0 0.0213 0 42.0815 0 0 0 0.018 0 0 0 0 0.0067 0.0922 0.0055 21.0407 0 0 0 0.0266 0 37.4057 0 0 0 0.0228 0 42.0815 0 0 0 0.015 0 0 0 0 0.0067 0.0925 -0.0113 21.0407 0 0 0 0.0247 0 37.4057 0 0 0 0.0221 0 42.0815 0 0 0 0.018 0 0 0 0 0.0066 0.0935 -0.0272 21.0407 0 0 0 0.0163 0 37.4057 0 0 0 0.0171 0 42.0815 0 0 0 0.018 0 0 0 0 -5.96046e-06 38.5049 0 7.53497 7.50857 -0.990244 0 14.3341 2.38419e-05 1.05654e-05 -7.68396e-06 4.26887e-07 
